<svg width="96.99999999999999" height="34" xmlns="http://www.w3.org/2000/svg">
 <!-- Generator: Sketch 56 (81588) - https://sketch.com -->

 <title>tinder-1</title>
 <desc>Created with Sketch.</desc>
 <g>
  <title>background</title>
  <rect fill="none" id="canvas_background" height="402" width="582" y="-1" x="-1"/>
 </g>
 <g>
  <title>Layer 1</title>
  <g fill-rule="evenodd" fill="none" id="Web">
   <g stroke-width="0.5" stroke="#DF4723" fill-rule="nonzero" fill="#DF4723" id="Login">
    <g id="Group-3">
     <g id="tinder-1">
      <path fill="#7159c1" stroke-width="0" id="Shape" d="m13.940969,1.035242c0.211454,0.098679 0.345375,0.303084 0.514538,0.465199c0.274889,0.239647 0.479365,0.556828 0.747207,0.803524c0.331277,0.31718 0.542731,0.718942 0.817621,1.078414c0.479295,0.725991 0.902202,1.501321 1.120705,2.347136c0.22555,0.577974 0.260793,1.205287 0.246696,1.825551c0.014097,0.563877 -0.14097,1.120705 -0.394784,1.628194c-0.436934,0.768282 -1.226362,1.282819 -2.051102,1.557709c-1.029075,0.246696 -2.163876,0.288987 -3.157709,-0.148017c-0.359542,-0.197357 -0.768282,-0.331278 -1.057269,-0.64141c-0.669603,-0.54978 -1.057268,-1.444934 -0.930396,-2.311894c0.197357,-1.543613 1.120705,-2.868723 2.107489,-4.010573c0.09163,0.169163 0.014026,0.36652 0.077533,0.542731c0.084581,0.373568 0.218502,0.768282 0.50044,1.036124c0.345375,-0.317181 0.711965,-0.634362 1.008,-1.000882c0.267842,-0.394713 0.486273,-0.831718 0.577903,-1.296916c0.021216,-0.59207 0.077604,-1.212335 -0.148017,-1.776211l0.021145,-0.098679l0,0zm-12.912775,7.04141c1.649339,0.014097 3.305727,-0.014097 4.955136,0.014097c0,1.642291 0.014027,3.284581 -0.007119,4.926872c1.170115,0.021145 2.340089,0.007049 3.517181,0.007049c0.014097,0.126872 0.021145,0.253744 0.021145,0.380616c-0.014096,1.353304 0.007049,2.69956 -0.014096,4.052864c-1.177093,0.014097 -2.347137,0 -3.52423,0.007048c0.021146,2.431718 -0.007048,4.856388 0.014097,7.288106c0.042291,0.211454 0.070485,0.422908 0.063436,0.64141c-0.021215,0.197427 0.098608,0.359541 0.14097,0.542731c0.09163,0.422907 0.324229,0.803524 0.592,1.134872c0.394784,0.394714 0.902202,0.669604 1.444934,0.789357c0.493392,0.077603 0.986784,0.119824 1.487295,0.084581c0.028123,0.084582 0.04229,0.169164 0.04229,0.260793c-0.007048,1.268723 -0.007048,2.537445 0,3.799119c0,0.176212 -0.035242,0.352423 -0.063436,0.521516c-0.711894,0 -1.423718,0.049339 -2.135682,0c-0.422908,-0.09163 -0.873939,-0.049339 -1.28282,-0.232599c-1.134802,-0.267842 -2.220264,-0.831718 -3.030837,-1.684582c-1.191189,-1.148828 -1.832599,-2.769973 -2.093392,-4.377022c-0.070485,-0.176211 -0.028194,-0.380617 -0.056458,-0.570925c-0.098608,-0.387665 -0.056388,-0.796546 -0.070485,-1.191189c-0.006978,-5.462555 -0.006978,-10.932159 0.000071,-16.394714zm24.077533,4.567401c0.295965,-0.077533 0.613145,-0.021145 0.90918,-0.084582c0.620265,-0.077533 1.233481,0.021146 1.846697,0.042291c0.429956,-0.007048 0.845814,0.119824 1.268722,0.204405c1.571806,0.380617 3.059031,1.219384 4.137445,2.445815c0.190308,0.317181 0.479295,0.54978 0.662485,0.874009c0.458149,0.725991 0.761303,1.536564 1.022026,2.354185c0.162185,0.599119 0.246696,1.219383 0.324299,1.832599c0.035243,1.360353 0.014097,2.727754 0.021146,4.088106c-0.007049,2.713656 0.007048,5.427313 -0.007049,8.140969c-1.649339,-0.021145 -3.291629,-0.007048 -4.93392,-0.014097c-0.014097,-0.007048 -0.049339,-0.035242 -0.063436,-0.049339c-0.007049,-3.799048 0,-7.598238 0,-11.390308c0.007048,-0.465198 -0.077534,-0.9163 -0.176212,-1.360353c-0.176211,-0.451101 -0.401762,-0.881057 -0.711894,-1.247577c-0.183331,-0.218502 -0.437005,-0.359471 -0.64148,-0.549779c-0.317181,-0.211454 -0.690749,-0.310133 -1.05015,-0.408811c-0.190309,-0.014097 -0.380617,0 -0.556828,-0.063436c-0.754185,-0.049339 -1.522467,0.014097 -2.227313,0.303083c-0.514608,0.246696 -0.993903,0.585023 -1.332159,1.057269c-0.556828,0.662555 -0.740088,1.564758 -0.725991,2.410573c0,3.763877 0.007049,7.534802 0,11.298678c-1.663507,0.014097 -3.326872,-0.007048 -4.990308,0.014097c-0.028194,-3.629956 0,-7.26696 -0.014097,-10.896916c0.007048,-0.465269 -0.007049,-0.930397 0.028194,-1.395665c0.09163,-0.232599 0.028123,-0.486273 0.098608,-0.711895c0.126872,-0.859911 0.451101,-1.677533 0.810572,-2.459911c0.352423,-0.683701 0.775331,-1.339208 1.32511,-1.881939c0.430027,-0.437004 0.874009,-0.895154 1.416811,-1.198238c1.050291,-0.732969 2.290819,-1.177022 3.559542,-1.353233zm-13.99119,0.373568c1.663437,0.028194 3.326873,-0.007048 4.990309,0.014097c0,6.449339 -0.007049,12.89156 0,19.333921c0,0.063436 0,0.190308 -0.098679,0.169163l-4.877462,0c-0.042361,-1.064317 -0.007119,-2.135683 -0.021216,-3.2c0.007048,-5.434362 0,-10.875771 0.007048,-16.317181l0,0zm52.193833,13.081939c0.422907,-0.162115 0.831718,-0.373569 1.261604,-0.521516c0.620264,-0.239647 1.226431,-0.528634 1.846696,-0.768282c1.282819,-0.592 2.607929,-1.085392 3.904845,-1.642291c0.310062,-0.169163 0.662485,-0.246696 0.965569,-0.429956c0.345374,-0.13392 0.690819,-0.253815 1.029145,-0.408881c0.296035,-0.176211 0.634361,-0.246696 0.937445,-0.401691c0.401762,-0.162185 0.789427,-0.345375 1.198238,-0.493392c0.415859,-0.23267 0.881057,-0.345375 1.296916,-0.570996c0.112776,-0.077533 0.295965,-0.056388 0.36645,-0.190308c-0.119754,-0.169093 -0.056388,-0.380547 -0.119754,-0.563877c-0.0917,-0.331207 -0.18333,-0.655507 -0.260793,-0.979665c-0.31718,-0.979736 -0.77533,-1.917181 -1.395594,-2.734802c-0.754185,-1.092511 -1.790309,-1.973568 -2.939208,-2.622026c-0.754184,-0.45815 -1.599999,-0.718943 -2.445814,-0.944494c-0.521586,-0.063436 -1.022027,-0.246696 -1.550661,-0.239647c-0.479295,-0.063436 -0.972687,-0.09163 -1.444934,-0.007049c-0.838767,0.014097 -1.642291,0.218502 -2.438767,0.451101c-1.388546,0.486344 -2.706608,1.226432 -3.770925,2.248459c-0.31718,0.296035 -0.577973,0.641409 -0.881057,0.944493c-0.472247,0.606168 -0.902273,1.247577 -1.226432,1.938326c-0.45815,1.036123 -0.895154,2.121586 -0.944493,3.270485c-0.154996,0.549779 -0.105727,1.127753 -0.112775,1.69163c-0.014097,0.359471 0.04229,0.711894 0.112775,1.057268c-0.021146,0.36645 0.119824,0.704846 0.169163,1.057269c0.119824,0.747137 0.451101,1.437815 0.754185,2.128564c0.831718,1.705727 2.142661,3.185903 3.785022,4.151542c1.078414,0.662555 2.276652,1.134802 3.531277,1.311013c1.022027,0.162185 2.072247,0.190308 3.101322,0.056458c0.352423,0.028124 0.690749,-0.126943 1.043172,-0.148088c1.501321,-0.352423 2.974449,-0.986784 4.109251,-2.051101c0.338396,-0.267842 0.655577,-0.585022 0.923418,-0.923419c0.451031,-0.45815 0.775331,-1.014907 1.09956,-1.564687c0.310132,-0.585092 0.563876,-1.205357 0.747207,-1.846696c-0.098678,-0.042361 -0.211454,-0.028194 -0.310132,-0.028194c-1.64934,0.007119 -3.29163,-0.007048 -4.940969,0c-0.155067,0 -0.155067,0.211454 -0.253815,0.296035c-0.281939,0.408811 -0.64141,0.754185 -1.022027,1.078414c-0.54978,0.394785 -1.198238,0.606238 -1.839647,0.796476c-0.169163,0.021216 -0.331278,0.014097 -0.486344,0.077604c-0.394714,0.028123 -0.796476,0.014097 -1.198238,0.007048c-0.444053,-0.084581 -0.888106,-0.18326 -1.318062,-0.324229c-0.662484,-0.338326 -1.311013,-0.725991 -1.811383,-1.275841c-0.126943,-0.154996 -0.331277,-0.27482 -0.373639,-0.479295c0.112846,-0.04934 0.218573,-0.126873 0.345375,-0.148018c0.204405,-0.035242 0.359401,-0.197357 0.556828,-0.253744zm-2.030026,-3.56652c-0.098608,-0.246696 -0.007049,-0.535683 -0.021146,-0.796476c0.112846,-0.359542 0.148088,-0.740088 0.281939,-1.09963c0.338326,-0.796476 0.754185,-1.578784 1.360352,-2.206167c0.281938,-0.2326 0.521586,-0.514538 0.845815,-0.690749c0.239648,-0.126873 0.472247,-0.267842 0.718943,-0.380617c0.458149,-0.13385 0.902202,-0.345304 1.381568,-0.345304c0.436934,-0.105727 0.888106,-0.049339 1.332088,-0.042361c1.162996,0.162185 2.33311,0.662555 3.087225,1.585903c0.077603,0.18333 -0.18326,0.197427 -0.288987,0.267912c-0.45815,0.253744 -0.972687,0.380546 -1.430837,0.641409c-0.204405,0.035243 -0.380617,0.162115 -0.577974,0.225551c-1.45903,0.634361 -2.946255,1.191119 -4.391189,1.853745c-0.77526,0.303083 -1.543542,0.627312 -2.297797,0.986784zm-5.251102,-18.128635c-1.543542,-0.014097 -3.087224,0 -4.630766,-0.007048c-0.112846,0.014097 -0.246696,-0.035242 -0.338397,0.049339c0.014097,3.312775 0,6.632599 0.007119,9.945374c-0.007119,0.119824 0.021146,0.239648 -0.028194,0.352423c-0.140969,-0.021145 -0.211453,-0.155066 -0.31718,-0.232599c-0.711894,-0.613216 -1.5083,-1.134802 -2.396476,-1.437885c-0.599119,-0.232599 -1.226361,-0.352423 -1.860722,-0.465198c-0.718943,-0.014097 -1.444934,-0.035243 -2.170996,0.007048c-0.077533,0.021145 -0.148018,0.042291 -0.22548,0.049339c-1.614097,0.225551 -3.122538,0.979736 -4.362996,2.015859c-0.690749,0.648458 -1.381498,1.32511 -1.867841,2.142731c-0.570925,0.810573 -0.937445,1.74097 -1.289868,2.657269c-0.162115,0.577974 -0.3243,1.148899 -0.394784,1.740969c-0.133921,0.909251 -0.077533,1.839648 -0.063436,2.755948c0.035242,0.239647 0.112775,0.465198 0.119823,0.704845c0.126873,0.775331 0.352423,1.536564 0.662485,2.262555c0.260793,0.697798 0.6837,1.332159 1.071366,1.96652c0.27489,0.352423 0.542731,0.718943 0.874008,1.029075c0.493393,0.486344 0.979666,1.014978 1.59993,1.353304c0.73304,0.556828 1.6,0.888176 2.445815,1.212335c0.310132,0.056388 0.599119,0.232599 0.9163,0.239648c0.267841,0.021145 0.514537,0.148017 0.782449,0.13385c0.140969,-0.014097 0.267841,0.084581 0.415788,0.070484c0.683701,0.021146 1.37445,0.021146 2.05815,0c0.112776,0 0.225551,-0.049339 0.345375,-0.056387c0.472176,0.007048 0.90918,-0.176212 1.36733,-0.239648c0.599119,-0.218502 1.240599,-0.359471 1.797357,-0.68363c0.82467,-0.380617 1.571806,-0.916299 2.24141,-1.522537c0.845815,-0.73297 1.529515,-1.649269 2.037004,-2.650221c0.218502,-0.444052 0.465198,-0.874008 0.606167,-1.353304c0.267912,-0.662555 0.387666,-1.3674 0.479366,-2.065198c0.154996,-0.613216 0.105727,-1.254625 0.119894,-1.888987c0,-6.026361 0,-12.052793 0,-18.086273l0,0zm-5.011383,19.087225c-0.042291,0.747207 -0.324229,1.459031 -0.655507,2.128634c-0.556828,1.050221 -1.494273,1.853745 -2.55859,2.361234c-0.162185,0.084581 -0.373639,0.077603 -0.486344,0.232599c-0.197356,0 -0.394713,0.007119 -0.585022,0.077603c-0.606237,0.014097 -1.23348,0.070485 -1.82555,-0.098678c-0.253745,-0.119824 -0.535683,-0.169092 -0.789428,-0.303084c-0.31718,-0.176211 -0.676652,-0.296035 -0.937444,-0.563876c-0.493392,-0.345375 -0.873939,-0.817622 -1.219384,-1.303965c-0.27489,-0.472247 -0.549779,-0.95859 -0.676652,-1.494273c-0.140969,-0.281939 -0.126942,-0.599119 -0.204405,-0.895154c-0.021145,-0.754115 -0.063436,-1.529445 0.112775,-2.262556c0.077604,-0.232599 0.126943,-0.479295 0.211454,-0.711894c0.204405,-0.373638 0.331278,-0.789427 0.599119,-1.127753c0.140969,-0.296035 0.387665,-0.514608 0.585093,-0.768282c0.528634,-0.606167 1.254625,-0.993833 1.987594,-1.296916c0.27489,-0.063366 0.542732,-0.204335 0.831789,-0.204335c0.585022,-0.148088 1.191119,-0.028194 1.769163,0.077533c0.761233,0.27489 1.515418,0.655507 2.107489,1.219383c0.218502,0.204405 0.380546,0.45815 0.599119,0.662555c0.902132,1.212194 1.317921,2.769903 1.134731,4.271225zm24.018321,-9.641044l6.246093,0l4.520508,12.501465l4.640137,-12.501465l6.023926,0l-7.70752,18.149414l-6.169433,0l-7.553711,-18.149414z"/>
     </g>
    </g>
   </g>
  </g>
 </g>
</svg>